<?xml version="1.0" encoding="utf-8"?>
<!-- Generator: Adobe Illustrator 23.0.4, SVG Export Plug-In . SVG Version: 6.00 Build 0)  -->
<svg version="1.1" id="Layer_1" xmlns="http://www.w3.org/2000/svg" xmlns:xlink="http://www.w3.org/1999/xlink" x="0px" y="0px"
	 viewBox="0 0 128 128" style="enable-background:new 0 0 128 128;" xml:space="preserve">
<path d="M73.5,14.5H45.1c-5.3,0-9.6,4.1-9.6,9.4v2h-1.8c-5.3,0-9.6,4.1-9.6,9.4v68.6c0,5.3,4.4,9.6,9.6,9.6h49.5
	c5.3,0,9.4-4.4,9.4-9.6v-1.8h2c5.3,0,9.4-4.4,9.4-9.6V45L73.5,14.5z M73.5,25.1L93.4,45H73.5V25.1z M85,103.9c0,1.1-0.8,2-1.8,2
	H33.6c-1,0-2-1-2-2V35.3c0-1,0.9-1.8,2-1.8h1.8v60.8c0,5.3,2.5,7.7,7.7,7.7H85V103.9z M96.4,92.5c0,1.1-0.8,2-1.8,2H45.1
	c-1,0-2-1-2-2V23.9c0-1,0.9-1.8,2-1.8h20.8v30.5h30.5V92.5z"/>
</svg>
