<svg id="Layer_1" data-name="Layer 1" xmlns="http://www.w3.org/2000/svg" viewBox="0 0 1000 1000"><title>slugit</title><rect id="background" x="0.4" y="0.4" width="1000" height="1000" style="fill:#fff"/><g id="headerText.primary" style="isolation:isolate"><g style="isolation:isolate"><path d="M498.65,937.46q-101.28,0-188.42-40.67t-142-110.4l111.23-97.95Q379.13,794.7,510.27,794.69q66.39,0,108.74-25.73t42.33-73.88q0-68.05-187.59-144.43-3.35-1.64-5-2.49t-5-2.49a52.21,52.21,0,0,0-5.81-2.49,41.32,41.32,0,0,1-5.81-2.49q-71.4-29.88-109.57-49t-81.35-50.64Q218.07,409.57,199,369.7t-19.09-93q0-104.58,88.81-166t225-61.43q189.26,0,305.46,132.81L689.56,273.41Q598.26,192.09,487,192.07q-68.1,0-109.57,23.24T336,278.39q0,58.13,182.61,129.49,6.61,3.35,10,5,59.76,23.26,86.33,34.86t73.88,38.19q47.31,26.57,69.72,51.46T799.13,603q18.25,40.69,18.27,88.81,0,114.56-86.33,180.12T498.65,937.46Z" style="fill:#4a4972"/></g></g></svg>